<svg version="1.1" id="Layer_1" xmlns="http://www.w3.org/2000/svg" x="0" y="0" viewBox="0 0 395.447 395.447" style="enable-background:new 0 0 395.447 395.447" xml:space="preserve"><g fill="#789"><path d="M324.539 370.643c-73.953-25.276-123.563-94.639-123.563-172.92 0-10.007.814-20.031 2.42-29.792a7.5 7.5 0 0 0-14.801-2.435 199.024 199.024 0 0 0-2.62 32.228c0 77.369 44.799 146.692 113.539 178.962a183.47 183.47 0 0 1-37.068 3.762c-100.754 0-182.724-81.97-182.724-182.724S161.691 15 262.445 15c12.534 0 24.934 1.261 37.068 3.76-37.679 17.699-68.87 46.868-89.201 83.848a7.5 7.5 0 0 0 13.145 7.227c22.047-40.1 57.906-70.263 101.047-85.025a7.5 7.5 0 0 0 1.121-14.496l-.139-.047-.067-.022C305.173 3.447 283.985 0 262.445 0 153.42 0 64.721 88.697 64.721 197.723s88.699 197.724 197.724 197.724c21.522 0 42.69-3.44 62.921-10.227a5.88 5.88 0 0 0 .174-.057l.129-.044a7.5 7.5 0 0 0-1.13-14.476z"/><path d="M198.804 131.289c-2.62 1.942-3.691 5.475-2.592 8.547 1.054 2.946 3.93 4.977 7.063 4.977 3.616 0 6.746-2.683 7.383-6.221 1.181-6.552-6.561-11.229-11.854-7.303z"/></g></svg>