<svg width="256" height="256" id="Flat" xmlns="http://www.w3.org/2000/svg"><path fill="#ff6b08" d="M128 64a64 64 0 1 0 64 64 64.073 64.073 0 0 0-64-64Zm0 120a56 56 0 1 1 56-56 56.064 56.064 0 0 1-56 56Zm-4-148v-8a4 4 0 0 1 8 0v8a4 4 0 0 1-8 0ZM54.46 60.118a4 4 0 0 1 5.658-5.657l5.657 5.657a4 4 0 0 1-5.657 5.657ZM40 128a4 4 0 0 1-4 4h-8a4 4 0 0 1 0-8h8a4 4 0 0 1 4 4Zm25.775 62.225a4 4 0 0 1 0 5.657l-5.657 5.657a4 4 0 0 1-5.657-5.657l5.657-5.657a4.001 4.001 0 0 1 5.657 0ZM132 220v8a4 4 0 0 1-8 0v-8a4 4 0 0 1 8 0Zm69.54-24.118a4 4 0 0 1-5.658 5.657l-5.657-5.657a4 4 0 0 1 5.657-5.657ZM232 128a4 4 0 0 1-4 4h-8a4 4 0 0 1 0-8h8a4 4 0 0 1 4 4Zm-41.774-62.225a4 4 0 0 1 0-5.657l5.656-5.657a4 4 0 0 1 5.657 5.657l-5.657 5.657a4 4 0 0 1-5.656 0Z"/></svg>