<?xml version="1.0" encoding="iso-8859-1"?>
<!-- Generator: Adobe Illustrator 19.0.0, SVG Export Plug-In . SVG Version: 6.00 Build 0)  -->
<svg version="1.1" id="Layer_1" xmlns="http://www.w3.org/2000/svg" xmlns:xlink="http://www.w3.org/1999/xlink" x="0px" y="0px"
	 viewBox="0 0 395.447 395.447" style="enable-background:new 0 0 395.447 395.447;" xml:space="preserve">
<g>
	<g>
		<g>
			<path fill="lightSlateGray" d="M324.539,370.643c-73.953-25.276-123.563-94.639-123.563-172.92c0-10.007,0.814-20.031,2.42-29.792
				c0.672-4.087-2.096-7.946-6.183-8.618c-4.086-0.67-7.945,2.096-8.618,6.183c-1.739,10.565-2.62,21.408-2.62,32.228
				c0,77.369,44.799,146.692,113.539,178.962c-12.133,2.501-24.535,3.762-37.068,3.762c-100.754,0-182.724-81.97-182.724-182.724
				S161.691,15,262.445,15c12.534,0,24.934,1.261,37.068,3.76c-37.679,17.699-68.87,46.868-89.201,83.848
				c-1.995,3.63-0.671,8.19,2.959,10.186c3.631,1.995,8.19,0.67,10.186-2.959c22.047-40.1,57.906-70.263,101.047-85.025
				c2.621-0.457,4.916-2.296,5.826-4.993c1.324-3.923-0.782-8.177-4.705-9.503l-0.139-0.047c-0.022-0.007-0.045-0.015-0.067-0.022
				C305.173,3.447,283.985,0,262.445,0C153.42,0,64.721,88.697,64.721,197.723s88.699,197.724,197.724,197.724
				c21.522,0,42.69-3.44,62.921-10.227c0.058-0.018,0.116-0.037,0.174-0.057l0.129-0.044c3.906-1.346,5.987-5.599,4.654-9.51
				C329.412,372.934,327.138,371.108,324.539,370.643z"/>
			<path fill="lightSlateGray" d="M198.804,131.289c-2.62,1.942-3.691,5.475-2.592,8.547c1.054,2.946,3.93,4.977,7.063,4.977
				c3.616,0,6.746-2.683,7.383-6.221C211.839,132.04,204.097,127.363,198.804,131.289z"/>
		</g>
	</g>
</g>
<g>
</g>
<g>
</g>
<g>
</g>
<g>
</g>
<g>
</g>
<g>
</g>
<g>
</g>
<g>
</g>
<g>
</g>
<g>
</g>
<g>
</g>
<g>
</g>
<g>
</g>
<g>
</g>
<g>
</g>
</svg>
